<?xml version="1.0" encoding="utf-8"?>
<!-- Generator: Adobe Illustrator 17.0.0, SVG Export Plug-In . SVG Version: 6.00 Build 0)  -->
<!DOCTYPE svg PUBLIC "-//W3C//DTD SVG 1.1//EN" "http://www.w3.org/Graphics/SVG/1.1/DTD/svg11.dtd">
<svg version="1.1" id="Layer_1" xmlns="http://www.w3.org/2000/svg" xmlns:xlink="http://www.w3.org/1999/xlink" x="0px" y="0px"
	 width="64px" height="64px" viewBox="0 0 64 64" enable-background="new 0 0 64 64" xml:space="preserve">
    <path id="heart" fill="#444444" d="M29.479,59.16c-1.378-1.641-4.817-4.84-7.643-7.109c-8.374-6.723-9.514-7.695-12.914-11.024
	  C2.653,34.892-0.009,28.727,0,20.369c0.004-4.08,0.266-5.652,1.341-8.057c1.824-4.08,4.51-7.112,7.945-8.967
	  c2.433-1.313,3.632-1.897,7.694-1.921c4.249-0.025,5.144,0.502,7.643,1.961c3.042,1.777,6.174,5.574,6.821,8.271l0.4,1.666
	  l0.986-2.294c5.572-12.966,23.36-12.772,29.55,0.322c1.964,4.154,2.179,13.023,0.438,18.019c-2.272,6.517-6.538,11.486-16.401,19.1
	  C39.95,53.463,32.63,61.018,32.12,62.079C31.529,63.31,32.092,62.272,29.479,59.16z"/>
</svg>
