<?xml version="1.0" encoding="utf-8"?>
<!-- Generator: Adobe Illustrator 17.0.0, SVG Export Plug-In . SVG Version: 6.00 Build 0)  -->
<!DOCTYPE svg PUBLIC "-//W3C//DTD SVG 1.1//EN" "http://www.w3.org/Graphics/SVG/1.1/DTD/svg11.dtd">
<svg version="1.1" id="svg2" xmlns:svg="http://www.w3.org/2000/svg"
	 xmlns="http://www.w3.org/2000/svg" xmlns:xlink="http://www.w3.org/1999/xlink" x="0px" y="0px" width="68px" height="64px"
	 viewBox="0.505 522.31 68 64" enable-background="new 0.505 522.31 68 64" xml:space="preserve">
<g id="layer1">
	<path id="path2417" fill="#FFFFFF" d="M31.979,579.86c-1.378-1.544-4.817-4.553-7.643-6.687c-8.374-6.324-9.514-7.239-12.914-10.37
		c-6.268-5.772-8.931-11.571-8.921-19.434c0.004-3.838,0.266-5.317,1.341-7.58c1.824-3.839,4.51-6.691,7.945-8.435
		c2.433-1.236,3.632-1.785,7.694-1.807c4.249-0.023,5.144,0.472,7.643,1.845c3.042,1.671,6.174,5.244,6.821,7.781l0.4,1.567
		l0.986-2.158c5.572-12.197,23.36-12.015,29.55,0.303c1.964,3.908,2.179,12.251,0.438,16.951
		c-2.272,6.131-6.538,10.805-16.401,17.968c-6.468,4.697-13.788,11.805-14.298,12.803C34.029,583.765,34.592,582.788,31.979,579.86z
		"/>
	<g id="g2221" transform="translate(129.28571,-64.285714)">
	</g>
</g>
</svg>
