<?xml version="1.0" encoding="utf-8"?>
<!-- Generator: Adobe Illustrator 17.0.0, SVG Export Plug-In . SVG Version: 6.00 Build 0)  -->
<!DOCTYPE svg PUBLIC "-//W3C//DTD SVG 1.1//EN" "http://www.w3.org/Graphics/SVG/1.1/DTD/svg11.dtd">
<svg version="1.1"
	 id="svg3013" inkscape:version="0.48.3.1 r9886" sodipodi:docname="remove_sign_font_awesome.svg" xmlns:inkscape="http://www.inkscape.org/namespaces/inkscape" xmlns:sodipodi="http://sodipodi.sourceforge.net/DTD/sodipodi-0.dtd" xmlns:svg="http://www.w3.org/2000/svg" xmlns:dc="http://purl.org/dc/elements/1.1/" xmlns:rdf="http://www.w3.org/1999/02/22-rdf-syntax-ns#" xmlns:cc="http://creativecommons.org/ns#"
	 xmlns="http://www.w3.org/2000/svg" xmlns:xlink="http://www.w3.org/1999/xlink" x="0px" y="0px" width="690px" height="690px"
	 viewBox="277.874 42.811 690 690" enable-background="new 277.874 42.811 690 690" xml:space="preserve">
<sodipodi:namedview  inkscape:window-y="25" inkscape:current-layer="svg3013" inkscape:window-x="0" inkscape:window-maximized="0" inkscape:window-width="640" inkscape:window-height="480" inkscape:pageopacity="0" inkscape:pageshadow="2" borderopacity="1" guidetolerance="10" objecttolerance="10" gridtolerance="10" id="namedview3019" bordercolor="#666666" pagecolor="#ffffff" showgrid="false" inkscape:zoom="0.13169643" inkscape:cx="896" inkscape:cy="896">
	</sodipodi:namedview>
<g id="Layer_2">
	<path fill="#FFFFFF" stroke="#000000" stroke-miterlimit="10" d="M830.5,567.5c0,6.627-5.373,12-12,12h-380
		c-6.627,0-12-5.373-12-12v-389c0-6.627,5.373-12,12-12h380c6.627,0,12,5.373,12,12V567.5z"/>
</g>
<g id="g3015" transform="matrix(1,0,0,-1,136.67797,1293.0169)">
	<path id="path3017" inkscape:connector-curvature="0" fill="#E01F2A" d="M661.281,804.313c0,7.738-2.827,14.435-8.482,20.089
		l-80.804,80.804l80.804,80.804c5.655,5.655,8.482,12.351,8.482,20.089c0,8.036-2.827,14.881-8.482,20.536l-40.179,40.179
		c-5.655,5.655-12.5,8.482-20.536,8.482c-7.738,0-14.435-2.827-20.089-8.482l-80.804-80.804l-80.804,80.804
		c-5.655,5.655-12.351,8.482-20.089,8.482c-8.036,0-14.881-2.827-20.536-8.482l-40.179-40.179c-5.655-5.655-8.482-12.5-8.482-20.536
		c0-7.738,2.827-14.435,8.482-20.089l80.804-80.804l-80.804-80.804c-5.655-5.655-8.482-12.351-8.482-20.089
		c0-8.036,2.827-14.881,8.482-20.536l40.179-40.179c5.655-5.655,12.5-8.482,20.536-8.482c7.738,0,14.435,2.827,20.089,8.482
		l80.804,80.804l80.804-80.804c5.655-5.655,12.351-8.482,20.089-8.482c8.036,0,14.881,2.827,20.536,8.482l40.179,40.179
		C658.454,789.432,661.281,796.277,661.281,804.313z M828.91,906.349c0-62.202-15.327-119.568-45.982-172.098
		c-30.655-52.53-72.247-94.122-124.777-124.777c-52.53-30.655-109.896-45.982-172.098-45.982s-119.568,15.327-172.098,45.982
		c-52.53,30.655-94.122,72.247-124.777,124.777c-30.655,52.53-45.982,109.896-45.982,172.098s15.327,119.568,45.982,172.098
		c30.655,52.53,72.247,94.122,124.777,124.777s109.896,45.982,172.098,45.982s119.568-15.327,172.098-45.982
		c52.53-30.655,94.122-72.247,124.777-124.777C813.583,1025.917,828.91,968.551,828.91,906.349z"/>
</g>
</svg>
